<svg width="26" height="24" viewBox="0 0 26 24" fill="currentColor" xmlns="http://www.w3.org/2000/svg">
<path d="M22.6673 6.79983C23.185 6.28216 23.185 5.44284 22.6673 4.92517L20.6845 2.94239C20.1669 2.42471 19.3276 2.42471 18.8099 2.94239L13.9373 7.81494C13.4197 8.33261 12.5803 8.33261 12.0627 7.81494L7.19011 2.94239C6.67244 2.42471 5.83313 2.42471 5.31546 2.94239L3.33267 4.92517C2.815 5.44284 2.815 6.28216 3.33267 6.79983L8.20523 11.6724C8.7229 12.1901 8.7229 13.0294 8.20523 13.547L3.33267 18.4196C2.815 18.9373 2.815 19.7766 3.33267 20.2943L5.31546 22.277C5.83313 22.7947 6.67244 22.7947 7.19011 22.277L12.0627 17.4045C12.5803 16.8868 13.4197 16.8868 13.9373 17.4045L18.8099 22.277C19.3276 22.7947 20.1669 22.7947 20.6845 22.277L22.6673 20.2943C23.185 19.7766 23.185 18.9373 22.6673 18.4196L17.7948 13.547C17.2771 13.0294 17.2771 12.1901 17.7948 11.6724L22.6673 6.79983Z" />
</svg>
