<svg width="30" height="40" viewBox="0 0 30 40" fill="none" xmlns="http://www.w3.org/2000/svg">
<g clip-path="url(#clip0_436_2352)">
<path d="M23.3251 20.7883C21.3967 25.715 18.1258 28.1039 15.3557 29.2621C15.3557 29.2621 13.1611 33.1146 10.7199 37.1596C10.6378 37.2958 10.5102 37.3985 10.3597 37.4496C10.2091 37.5007 10.0454 37.4969 9.89737 37.4387C9.81134 37.4053 9.73309 37.3545 9.66747 37.2896C9.60184 37.2246 9.55024 37.1469 9.51585 37.0613C9.48145 36.9756 9.465 36.8838 9.46751 36.7915C9.47002 36.6992 9.49143 36.6084 9.53043 36.5248C10.2962 34.8939 12.0975 30.7829 12.0975 30.7829C15.889 22.0927 17.4032 15.8968 17.4032 15.8968C14.1607 20.7789 10.4161 30.3454 10.4161 30.3454C10.4161 30.3454 3.82518 23.7711 7.42835 14.5659C11.63 3.8317 21.0778 3.10745 21.0778 3.10745C21.0778 3.10745 27.3092 10.61 23.3251 20.7883Z" fill="#AEC71A"/>
</g>
<defs>
<clipPath id="clip0_436_2352">
<rect width="17.0676" height="36.0464" fill="white" transform="translate(13.1387) rotate(21.3767)"/>
</clipPath>
</defs>
</svg>
